<?xml version="1.0" encoding="UTF-8"?>
<svg version="1.1" xmlns="http://www.w3.org/2000/svg" width="752" height="752">
<path d="M0 0 C5.25117567 3.83243698 9.2593571 8.38403203 11.2265625 14.625 C11.53400798 17.78131346 11.53770892 20.92740657 11.54541016 24.09692383 C11.55545578 25.04375031 11.5655014 25.99057678 11.57585144 26.96609497 C11.60668195 30.0880677 11.62371836 33.20995466 11.640625 36.33203125 C11.65933673 38.49965655 11.67891015 40.66727457 11.6993103 42.83488464 C11.75063681 48.53449205 11.79025988 54.23412307 11.82745361 59.93383789 C11.86748991 65.75217534 11.91858399 71.5704145 11.96875 77.38867188 C12.0655155 88.80071221 12.1499184 100.21280803 12.2265625 111.625 C12.81050781 111.46515625 13.39445312 111.3053125 13.99609375 111.140625 C20.70371379 109.5900018 27.11724552 110.57563555 33.2265625 113.625 C36.14221796 115.72077897 38.84420371 117.93105205 41.2265625 120.625 C41.2265625 121.285 41.2265625 121.945 41.2265625 122.625 C42.1546875 122.295 43.0828125 121.965 44.0390625 121.625 C52.26955511 119.35165829 59.52326283 119.87259176 66.99609375 124.06640625 C72.85792542 128.16250229 76.35870701 133.19364569 77.73510742 140.22167969 C78.32711127 144.321299 78.58135838 148.38057728 78.77734375 152.515625 C78.81918289 153.38503723 78.86102203 154.25444946 78.90412903 155.15020752 C79.378853 165.88888137 79.42539603 176.62745375 79.4140625 187.375 C79.41345825 188.43928223 79.412854 189.50356445 79.41223145 190.60009766 C79.31803936 252.01333884 79.31803936 252.01333884 68.2265625 272.625 C67.43765625 274.11966797 67.43765625 274.11966797 66.6328125 275.64453125 C58.00319293 291.23668478 58.00319293 291.23668478 51.2265625 294.625 C49.77292154 294.73160615 48.31460082 294.77747862 46.85713196 294.7923584 C45.9389418 294.80384918 45.02075165 294.81533997 44.07473755 294.82717896 C43.06434418 294.83458099 42.05395081 294.84198303 41.01293945 294.84960938 C39.95099869 294.86099945 38.88905792 294.87238953 37.79493713 294.88412476 C26.68470355 294.99475254 15.57380315 295.04220221 4.46313477 295.08496094 C-0.81095868 295.1072471 -6.08434578 295.14903147 -11.3581543 295.20800781 C-17.7212504 295.27903077 -24.08368096 295.31578388 -30.44715309 295.32807922 C-32.87248642 295.33849063 -35.29779919 295.36094005 -37.72290611 295.39567566 C-41.12034201 295.44182289 -44.5151625 295.44388788 -47.9128418 295.43554688 C-48.91311401 295.45914276 -49.91338623 295.48273865 -50.94396973 295.50704956 C-56.1509972 295.44523356 -59.03595528 294.9633372 -62.81784058 291.23092651 C-63.83042745 290.0519312 -64.81915293 288.8516634 -65.7734375 287.625 C-66.48298584 286.79822754 -67.19253418 285.97145508 -67.92358398 285.11962891 C-73.7757636 277.26705334 -77.78075056 268.85911629 -81.8359375 260 C-82.57047403 258.41812186 -83.3059231 256.83666716 -84.04223633 255.25561523 C-86.3040423 250.38697268 -88.54121482 245.50726281 -90.7734375 240.625 C-91.13038696 239.84541931 -91.48733643 239.06583862 -91.85510254 238.26263428 C-95.70470226 229.85425155 -99.53602299 221.4377601 -103.33345032 213.00567627 C-104.7007852 209.97462754 -106.08311734 206.95158947 -107.49462891 203.94091797 C-108.30746338 202.20479248 -108.30746338 202.20479248 -109.13671875 200.43359375 C-109.62052002 199.40935303 -110.10432129 198.3851123 -110.6027832 197.32983398 C-113.87786721 189.76264822 -113.808621 181.4539771 -110.8515625 173.765625 C-106.83655265 165.79379384 -99.36043386 160.74415338 -92.43359375 155.45703125 C-87.84699691 151.94676879 -83.48031781 148.18987171 -79.1015625 144.42578125 C-76.7734375 142.625 -76.7734375 142.625 -74.7734375 142.625 C-74.79700317 141.46097656 -74.79700317 141.46097656 -74.82104492 140.2734375 C-74.88378423 136.72403381 -74.92255197 133.17474724 -74.9609375 129.625 C-74.98607422 128.40425781 -75.01121094 127.18351563 -75.03710938 125.92578125 C-75.10190388 117.93445851 -74.83775098 111.84437622 -70.01171875 105.19921875 C-63.46513669 98.78542741 -58.65396339 96.50775128 -49.4609375 96.375 C-46.19501777 96.42518058 -43.88451961 96.58797263 -40.7734375 97.625 C-40.77787872 96.68032364 -40.78231995 95.73564728 -40.78689575 94.76234436 C-40.82754922 85.83246371 -40.85747328 76.90260199 -40.87706184 67.97264957 C-40.88747126 63.38236172 -40.90157823 58.79214895 -40.92431641 54.2019043 C-40.94614655 49.76689866 -40.95802748 45.33196496 -40.96319199 40.89690971 C-40.96686955 39.21014716 -40.97405066 37.52338826 -40.98489761 35.83665657 C-41.13160294 12.06468038 -41.13160294 12.06468038 -32.9453125 3.7734375 C-23.66891069 -4.83024815 -11.16887989 -6.40300606 0 0 Z M-22.7734375 14.625 C-24.97933619 17.93384804 -25.02495159 18.93285238 -25.03172302 22.78025818 C-25.03855103 23.8471991 -25.04537903 24.91414001 -25.05241394 26.01341248 C-25.04986099 27.18388626 -25.04730804 28.35436005 -25.04467773 29.56030273 C-25.05251785 31.40937729 -25.05251785 31.40937729 -25.06051636 33.29580688 C-25.07077213 35.9772291 -25.07747589 38.65839517 -25.07839775 41.33981133 C-25.0803376 45.57964652 -25.09838583 49.81931811 -25.11915588 54.05909729 C-25.1683559 64.59029656 -25.19923459 75.12154028 -25.22045898 85.65283203 C-25.23697726 93.83645659 -25.2597779 102.01994105 -25.30347973 110.20347172 C-25.32526986 114.41816487 -25.3333127 118.63259199 -25.33108699 122.8473376 C-25.33314439 126.08505039 -25.35449866 129.3226472 -25.37280273 132.56030273 C-25.36822556 133.72875229 -25.36364838 134.89720184 -25.3589325 136.10105896 C-25.36858032 137.1708197 -25.37822815 138.24058044 -25.38816833 139.34275818 C-25.39118533 140.73619524 -25.39118533 140.73619524 -25.39426327 142.15778255 C-25.85094518 145.12932829 -26.65706812 146.50546737 -28.7734375 148.625 C-34.69680099 149.36542044 -34.69680099 149.36542044 -37.46679688 147.46044922 C-39.30591789 144.87702026 -39.15823556 142.97228485 -39.1796875 139.8203125 C-39.20160156 138.67949219 -39.22351563 137.53867187 -39.24609375 136.36328125 C-39.25511719 135.17089844 -39.26414062 133.97851562 -39.2734375 132.75 C-39.29135035 130.39829809 -39.32212239 128.04665082 -39.3671875 125.6953125 C-39.37427734 124.65133301 -39.38136719 123.60735352 -39.38867188 122.53173828 C-39.93880407 118.37572691 -41.65406512 115.74437238 -44.5859375 112.8125 C-47.626164 111.16209133 -49.35293582 111.07771973 -52.7734375 111.625 C-55.6962709 113.45600932 -58.20667604 115.49147708 -59.7734375 118.625 C-59.87394843 120.8809068 -59.90906009 123.139813 -59.9152832 125.39794922 C-59.91875763 126.09407318 -59.92223206 126.79019714 -59.92581177 127.50741577 C-59.93317006 129.02103754 -59.93851505 130.53467011 -59.94210243 132.04830551 C-59.94926154 134.44400564 -59.96492353 136.8395002 -59.98344421 139.23513794 C-60.0359418 146.04719227 -60.08389968 152.85913442 -60.09936523 159.67138672 C-60.10944211 163.83658574 -60.13875829 168.00126846 -60.18068504 172.16626358 C-60.19300431 173.75383729 -60.1981146 175.3414839 -60.19588661 176.92910385 C-60.19353568 179.15105098 -60.21568074 181.37151495 -60.2434082 183.59326172 C-60.24927444 184.85741913 -60.25514069 186.12157654 -60.26118469 187.42404175 C-60.86358762 191.18832881 -61.73425016 192.38905025 -64.7734375 194.625 C-67.8637498 195.06647319 -69.7862207 195.29000325 -72.42504883 193.51245117 C-74.42142774 190.71795445 -74.21080329 188.39364685 -74.28515625 184.98828125 C-74.33833008 183.04018555 -74.33833008 183.04018555 -74.39257812 181.05273438 C-74.415678 179.68099483 -74.4384604 178.3092499 -74.4609375 176.9375 C-74.49411292 175.55400393 -74.52860281 174.17053871 -74.56445312 172.78710938 C-74.64706991 169.39982117 -74.71617808 166.01279643 -74.7734375 162.625 C-79.31900896 164.74706382 -82.94650302 167.74524804 -86.8359375 170.875 C-87.55587891 171.43574219 -88.27582031 171.99648438 -89.01757812 172.57421875 C-93.06338779 175.82739532 -96.17793098 178.51408286 -97.7734375 183.625 C-97.37126501 188.87411909 -95.98543589 192.86700955 -93.703125 197.5859375 C-93.39005402 198.24133011 -93.07698303 198.89672272 -92.75442505 199.57197571 C-91.72734139 201.718718 -90.68778257 203.85917123 -89.6484375 206 C-88.18287943 209.05378675 -86.72419266 212.11083823 -85.265625 215.16796875 C-84.89250183 215.94789688 -84.51937866 216.72782501 -84.13494873 217.53138733 C-81.58013469 222.8856216 -79.09353935 228.26709764 -76.65625 233.67578125 C-76.32712616 234.40575317 -75.99800232 235.1357251 -75.65890503 235.88781738 C-74.39318095 238.69969897 -73.12961734 241.5124813 -71.87542725 244.32952881 C-68.66911299 251.52926939 -65.35084806 258.65218332 -61.7109375 265.64453125 C-61.40671875 266.24230881 -61.1025 266.84008636 -60.7890625 267.45597839 C-56.70617244 275.40364348 -56.70617244 275.40364348 -49.70418358 280.2944231 C-47.22488384 280.57769302 -44.82632262 280.63956194 -42.33081055 280.62597656 C-41.39829468 280.64788055 -40.46577881 280.66978455 -39.50500488 280.69235229 C-36.43101304 280.75360437 -33.3597209 280.76254926 -30.28515625 280.765625 C-28.14051711 280.78558971 -25.99588877 280.80674616 -23.85127258 280.82904053 C-19.35801611 280.8664118 -14.86570777 280.87542105 -10.37231445 280.8671875 C-4.62715256 280.86088909 1.11259405 280.94602899 6.85656452 281.05539322 C11.28619109 281.12589901 15.71451972 281.13672951 20.14464378 281.13097382 C22.26139108 281.13736751 24.3781859 281.16459517 26.49437904 281.21344757 C37.21213027 281.86026795 37.21213027 281.86026795 46.98238754 278.37083435 C50.3263702 274.93792547 52.30140028 271.00092983 54.2265625 266.625 C54.74563171 265.57774246 55.26470093 264.53048492 55.79949951 263.45149231 C61.6001449 251.41643791 62.7102684 237.58848803 63.4140625 224.4375 C63.45359039 223.74400452 63.49311829 223.05050903 63.53384399 222.33599854 C64.7518528 200.71611311 64.66112924 179.00991173 63.8515625 157.375 C63.8055188 156.03767822 63.8055188 156.03767822 63.75854492 154.67333984 C63.34115607 145.20438184 63.34115607 145.20438184 59.0390625 137.0625 C55.25459111 135.12821462 53.26959616 135.44884475 49.2265625 136.625 C46.85278291 137.9568155 46.85278291 137.9568155 45.2265625 140.625 C44.63568837 144.16032697 44.62080212 147.6714302 44.6015625 151.25 C44.57610937 153.15898467 44.54265202 155.06788465 44.5 156.9765625 C44.49403809 157.82041504 44.48807617 158.66426758 44.48193359 159.53369141 C44.2265625 161.625 44.2265625 161.625 42.2265625 163.625 C36.54307626 164.1662844 36.54307626 164.1662844 34.2265625 163.625 C31.07824705 160.38589547 30.85844496 157.93018631 30.85546875 153.50390625 C30.83806641 152.32119141 30.82066406 151.13847656 30.80273438 149.91992188 C30.79363414 147.43555808 30.78841351 144.95117699 30.78710938 142.46679688 C30.76841797 141.28279297 30.74972656 140.09878906 30.73046875 138.87890625 C30.72861572 137.79939697 30.7267627 136.7198877 30.72485352 135.60766602 C30.10633515 131.90534416 28.85064108 130.26785763 26.2265625 127.625 C22.51356992 126.07229401 20.3351245 125.32938347 16.4140625 126.375 C14.11418944 127.56196145 14.11418944 127.56196145 12.2265625 129.625 C11.89022722 131.57448815 11.89022722 131.57448815 11.8828125 133.80078125 C11.83833984 135.04311523 11.83833984 135.04311523 11.79296875 136.31054688 C11.76009766 137.61088867 11.76009766 137.61088867 11.7265625 138.9375 C11.45228078 149.64255407 11.45228078 149.64255407 9.2265625 153.625 C6.143299 155.16663175 3.61778151 154.92247535 0.2265625 154.625 C-1.93852292 152.48672534 -2.70264777 151.10933375 -3.1442318 148.08807564 C-3.1414041 146.64517568 -3.1414041 146.64517568 -3.13851929 145.17312622 C-3.14383163 144.06563019 -3.14914398 142.95813416 -3.15461731 141.81707764 C-3.145327 140.60658752 -3.13603668 139.39609741 -3.12646484 138.14892578 C-3.12978077 136.18653152 -3.1331013 134.22413726 -3.13659501 132.26174331 C-3.13756383 130.15431656 -3.131243 128.0470193 -3.12299728 125.93960953 C-3.1066296 121.54370683 -3.11510534 117.14806872 -3.12783813 112.75216675 C-3.15795246 101.04191812 -3.15650465 89.33171708 -3.13758528 77.62144935 C-3.12524554 69.92725469 -3.12713089 62.23335986 -3.15597308 54.53919971 C-3.17119469 50.17180398 -3.16374363 45.80522268 -3.13926291 41.43787789 C-3.12680759 38.07842747 -3.14677571 34.71930106 -3.16162109 31.35986328 C-3.14828232 30.15342163 -3.13494354 28.94697998 -3.12120056 27.70397949 C-3.08761311 20.81794459 -3.08761311 20.81794459 -6.1690979 14.88595581 C-9.5073372 11.98786543 -11.35327909 11.65515323 -15.62109375 11.44921875 C-18.67823573 11.69889459 -20.45100497 12.65445119 -22.7734375 14.625 Z " fill="#F26510" transform="translate(392.7734375,230.375)"/>
</svg>
